{"title":"Cyrus.2010.DvDRip.Ac3.Feel-Free","uid":6005956,"size":895877173,"categoryP":"video","categoryS":"movies","magnet":"?xt=urn:btih:66a8911d8ffc6c0a5e2293b7041cd7929b9b368b&amp;dn=Cyrus.2010.DvDRip.Ac3.Feel-Free&amp;tr=udp%3A%2F%2Ftracker.openbittorrent.com%3A80&amp;tr=udp%3A%2F%2Fopen.demonii.com%3A1337&amp;tr=udp%3A%2F%2Ftracker.coppersurfer.tk%3A6969&amp;tr=udp%3A%2F%2Fexodus.desync.com%3A6969","seeders":0,"leechers":0,"uploader":"neon","files":-1,"time":1291323348,"description":"Genre:Crime | Mystery | Thriller\nLanguage:English\n &lt;a href=&quot; http://www.imdb.com/title/tt1327709/&quot; rel=&quot;nofollow&quot; target=&quot;_NEW&quot;&gt; http://www.imdb.com/title/tt1327709/&lt;/a&gt;\nSource:DVD\n\n\nGeneral\nComplete name :Cyrus.2010.DvDRip.Ac3.Feel-Free\nFormat : AVI\nFormat/Info : Audio Video Interleave\nFile size : 852 MiB\nDuration : 1h 24mn\nOverall bit rate : 1 417 Kbps\nVideo #0\nMuxing mode : Packed bitstream\nCodec ID : XVID\nCodec ID/Hint : XviD\nDuration : 1h 24mn\nBit rate : 959 Kbps\nWidth : 720 pixels\nHeight : 384 pixels\nDisplay aspect ratio : 1.875\nFrame rate : 25.000 fps\nResolution : 24 bits\nColorimetry : 4:2:0\nScan type : Progressive\nBits/(Pixel*Frame) : 0.139\nStream size : 577 MiB (68%)\nWriting library : XviD 1.2.1 (UTC 2008-12-04)\nAudio #1\nID : 1\nFormat : AC-3\nFormat/Info : Audio Coding 3\nCodec ID : 2000\nDuration : 1h 24mn\nBit rate mode : Constant\nBit rate : 448 Kbps\nChannel(s) : 6 channels\nChannel positions : Front: L C R, Surround: L R, LFE\nSampling rate : 48.0 KHz\nStream size : 269 MiB (32%)\nAlignment : Split accross interleaves\nInterleave, duration : 40 ms (1.00 video frame)\nInterleave, preload duration : 500 ms\n\n\nPlot:\nA small independent news crew investigates a series of unexplained disappearances in a small Midwestern county.\n\n","torrent":{"xt":"urn:btih:66a8911d8ffc6c0a5e2293b7041cd7929b9b368b","amp;dn":"Cyrus.2010.DvDRip.Ac3.Feel-Free","amp;tr":["udp%3A%2F%2Ftracker.openbittorrent.com%3A80","udp%3A%2F%2Fopen.demonii.com%3A1337","udp%3A%2F%2Ftracker.coppersurfer.tk%3A6969","udp%3A%2F%2Fexodus.desync.com%3A6969"],"infoHash":"66a8911d8ffc6c0a5e2293b7041cd7929b9b368b","infoHashBuffer":{"type":"Buffer","data":[102,168,145,29,143,252,108,10,94,34,147,183,4,28,215,146,155,155,54,139]},"announce":[],"urlList":[]}}